<?xml version="1.0" encoding="UTF-8"?>
<svg version="1.1" xmlns="http://www.w3.org/2000/svg" width="240" height="240">
<path d="M0 0 C79.2 0 158.4 0 240 0 C240 79.2 240 158.4 240 240 C160.8 240 81.6 240 0 240 C0 160.8 0 81.6 0 0 Z " fill="#000000" transform="translate(0,0)"/>
<path d="M0 0 C4.39982206 1.50335606 6.20373015 4.87846747 8.5625 8.625 C9.44671882 9.99035982 10.33217843 11.35491673 11.21875 12.71875 C11.67507812 13.42515625 12.13140625 14.1315625 12.6015625 14.859375 C14.86337818 18.32159565 17.21131624 21.72310257 19.5625 25.125 C20.0167334 25.78459717 20.4709668 26.44419434 20.93896484 27.1237793 C23.18116385 30.37725254 25.43301886 33.62374958 27.6953125 36.86328125 C28.11611084 37.4670459 28.53690918 38.07081055 28.97045898 38.69287109 C30.11747383 40.33711745 31.26762034 41.9791779 32.41796875 43.62109375 C34 46 34 46 34 47 C27.4 47 20.8 47 14 47 C14 93.53 14 140.06 14 188 C5.42 188 -3.16 188 -12 188 C-12.33 184.7 -12.66 181.4 -13 178 C-14.155 179.0725 -15.31 180.145 -16.5 181.25 C-26.56984026 190.04113039 -37.86857174 191.88373193 -50.91992188 191.19091797 C-63.8450139 190.00460084 -74.86439099 181.67856934 -83 172 C-92.72053044 158.49926328 -95.22909707 144.23948684 -94 128 C-91.32323975 113.30076228 -83.50375107 101.03282692 -71.83203125 91.8984375 C-60.06683646 84.01170003 -46.26375284 81.9975956 -32.49609375 84.68359375 C-24.51803167 87.13916586 -18.84490933 91.15509067 -13 97 C-12.67 80.5 -12.34 64 -12 47 C-18.6 47 -25.2 47 -32 47 C-27.22683416 39.40012815 -22.27870996 31.97102463 -17.125 24.625 C-15.7212511 22.61595743 -14.3176047 20.60684323 -12.9140625 18.59765625 C-12.24407227 17.64004395 -11.57408203 16.68243164 -10.88378906 15.69580078 C-8.41203739 12.15859472 -5.9535127 8.61237185 -3.5 5.0625 C-2.8090625 4.06347656 -2.118125 3.06445312 -1.40625 2.03515625 C-0.9421875 1.36355469 -0.478125 0.69195313 0 0 Z " fill="#006FDD" transform="translate(150,25)"/>
<path d="M0 0 C5.71536513 4.70472129 9.11163546 11.3841139 10.22265625 18.65625 C10.47907924 27.30773878 9.06600273 35.1882777 3.4375 41.9375 C-2.90775879 48.53550494 -9.29837795 51.48473941 -18.4375 52.0625 C-25.96221578 51.90703067 -32.56738352 48.73766933 -38.234375 43.8515625 C-43.79037915 37.7729639 -45.82310557 31.33364874 -45.75 23.25 C-45.74355469 22.50379395 -45.73710938 21.75758789 -45.73046875 20.98876953 C-45.44796863 12.42269673 -42.65531709 6.54848255 -36.4375 0.625 C-25.55994156 -7.99571921 -11.53518062 -7.4342704 0 0 Z " fill="#000001" transform="translate(128.25,139.4375)"/>
</svg>
